<?xml version="1.0" encoding="UTF-8"?>
<svg width="350" height="215" viewBox="0 0 350 215" xmlns="http://www.w3.org/2000/svg">
  <title>grokify&apos;s GitHub Stats</title>
  <style>
    .header { font: 600 18px 'Segoe UI', Ubuntu, 'Helvetica Neue', sans-serif; fill: #2f80ed; }
    .stat { font: 600 14px 'Segoe UI', Ubuntu, 'Helvetica Neue', sans-serif; fill: #434d58; }
    .stat-value { font: 700 14px 'Segoe UI', Ubuntu, 'Helvetica Neue', sans-serif; fill: #434d58; }
    .icon { fill: #4c71f2; }
  </style>
  <rect x="0.5" y="0.5" rx="4.5" width="349" height="99%" fill="#fffefe" stroke="#e4e2e2"/>
  <g transform="translate(25, 35)">
    <text class="header">grokify&apos;s GitHub Stats</text>
  </g>
  <g transform="translate(25, 55)">
    <g transform="translate(0, 0)">
      <svg width="16" height="16" viewBox="0 0 16 16" class="icon">
        <path fill="#4c71f2" d="M11.93 8.5a4.002 4.002 0 01-7.86 0H.75a.75.75 0 010-1.5h3.32a4.002 4.002 0 017.86 0h3.32a.75.75 0 010 1.5h-3.32zm-1.43-.75a2.5 2.5 0 10-5 0 2.5 2.5 0 005 0z"/>
      </svg>
      <text class="stat" x="25" y="12.5">Total Commits:</text>
      <text class="stat-value" x="290" y="12.5" text-anchor="end">1,125</text>
    </g>
    <g transform="translate(0, 25)">
      <svg width="16" height="16" viewBox="0 0 16 16" class="icon">
        <path fill="#4c71f2" d="M7.177 3.073L9.573.677A.25.25 0 0110 .854v4.792a.25.25 0 01-.427.177L7.177 3.427a.25.25 0 010-.354zM3.75 2.5a.75.75 0 100 1.5.75.75 0 000-1.5zm-2.25.75a2.25 2.25 0 113 2.122v5.256a2.251 2.251 0 11-1.5 0V5.372A2.25 2.25 0 011.5 3.25zM11 2.5h-1V4h1a1 1 0 011 1v5.628a2.251 2.251 0 101.5 0V5A2.5 2.5 0 0011 2.5zm1 10.25a.75.75 0 111.5 0 .75.75 0 01-1.5 0zM3.75 12a.75.75 0 100 1.5.75.75 0 000-1.5z"/>
      </svg>
      <text class="stat" x="25" y="12.5">Pull Requests:</text>
      <text class="stat-value" x="290" y="12.5" text-anchor="end">5</text>
    </g>
    <g transform="translate(0, 50)">
      <svg width="16" height="16" viewBox="0 0 16 16" class="icon">
        <path fill="#4c71f2" d="M8 9.5a1.5 1.5 0 100-3 1.5 1.5 0 000 3z M8 0a8 8 0 100 16A8 8 0 008 0zM1.5 8a6.5 6.5 0 1113 0 6.5 6.5 0 01-13 0z"/>
      </svg>
      <text class="stat" x="25" y="12.5">Issues:</text>
      <text class="stat-value" x="290" y="12.5" text-anchor="end">0</text>
    </g>
    <g transform="translate(0, 75)">
      <svg width="16" height="16" viewBox="0 0 16 16" class="icon">
        <path fill="#4c71f2" d="M8 2c1.981 0 3.671.992 4.933 2.078 1.27 1.091 2.187 2.345 2.637 3.023a1.62 1.62 0 010 1.798c-.45.678-1.367 1.932-2.637 3.023C11.67 13.008 9.981 14 8 14c-1.981 0-3.671-.992-4.933-2.078C1.797 10.831.88 9.577.43 8.899a1.62 1.62 0 010-1.798c.45-.678 1.367-1.932 2.637-3.023C4.33 2.992 6.019 2 8 2zM1.679 7.932a.12.12 0 000 .136c.411.622 1.241 1.75 2.366 2.717C5.176 11.758 6.527 12.5 8 12.5c1.473 0 2.824-.742 3.955-1.715 1.124-.967 1.954-2.096 2.366-2.717a.12.12 0 000-.136c-.412-.621-1.242-1.75-2.366-2.717C10.824 4.242 9.473 3.5 8 3.5c-1.473 0-2.824.742-3.955 1.715-1.124.967-1.954 2.096-2.366 2.717zM8 10a2 2 0 100-4 2 2 0 000 4z"/>
      </svg>
      <text class="stat" x="25" y="12.5">Code Reviews:</text>
      <text class="stat-value" x="290" y="12.5" text-anchor="end">0</text>
    </g>
    <g transform="translate(0, 100)">
      <svg width="16" height="16" viewBox="0 0 16 16" class="icon">
        <path fill="#4c71f2" d="M2 2.5A2.5 2.5 0 014.5 0h8.75a.75.75 0 01.75.75v12.5a.75.75 0 01-.75.75h-2.5a.75.75 0 110-1.5h1.75v-2h-8a1 1 0 00-.714 1.7.75.75 0 01-1.072 1.05A2.495 2.495 0 012 11.5v-9zm10.5-1V9h-8c-.356 0-.694.074-1 .208V2.5a1 1 0 011-1h8zM5 12.25v3.25a.25.25 0 00.4.2l1.45-1.087a.25.25 0 01.3 0L8.6 15.7a.25.25 0 00.4-.2v-3.25a.25.25 0 00-.25-.25h-3.5a.25.25 0 00-.25.25z"/>
      </svg>
      <text class="stat" x="25" y="12.5">Repos Contributed To:</text>
      <text class="stat-value" x="290" y="12.5" text-anchor="end">71</text>
    </g>
    <g transform="translate(0, 125)">
      <svg width="16" height="16" viewBox="0 0 16 16" class="icon">
        <path fill="#4c71f2" d="M4.72 3.22a.75.75 0 011.06 1.06L2.56 7.5l3.22 3.22a.75.75 0 11-1.06 1.06l-3.75-3.75a.75.75 0 010-1.06l3.75-3.75zm6.56 0a.75.75 0 10-1.06 1.06L13.44 7.5l-3.22 3.22a.75.75 0 101.06 1.06l3.75-3.75a.75.75 0 000-1.06l-3.75-3.75z"/>
      </svg>
      <text class="stat" x="25" y="12.5">Lines Changed:</text>
      <text class="stat-value" x="290" y="12.5" text-anchor="end">+738,054 / -294,379 (+443,675)</text>
    </g>
  </g>
</svg>
